<svg xmlns="http://www.w3.org/2000/svg" viewBox="0 0 414.95 97.81"><defs><style>.cls-1{fill:#68757e;}.cls-2{fill:#e53238;}.cls-3{fill:#ffdd04;}</style></defs><g id="Capa_2" data-name="Capa 2"><g id="Capa_1-2" data-name="Capa 1"><path class="cls-1" d="M343.07,85.62a6.72,6.72,0,0,1,.79-.08l.9,0a5.72,5.72,0,0,1,4,1.32A5.36,5.36,0,0,1,350.21,91a8.05,8.05,0,0,1-.38,2.7,4.15,4.15,0,0,1-1.09,1.73,3.94,3.94,0,0,1-1.72.93,8.7,8.7,0,0,1-2.26.27c-.31,0-.62,0-.92,0l-.77-.08Zm-1.25,12,.59.08.76.07.85,0h.81q6.69,0,6.69-6.78a9.13,9.13,0,0,0-.4-2.81,5.22,5.22,0,0,0-1.22-2.1,5.4,5.4,0,0,0-2.09-1.33,8.68,8.68,0,0,0-3-.46h-.76l-.84,0-.79.06-.62.08ZM332,93.11l2.31-7.28,2.34,7.28Zm-2.76,4.49.3,0h.72l.34,0,1-3.33H337l1.09,3.33.31,0h.73l.3,0-4.36-13.07a1.52,1.52,0,0,0-.34,0h-.8a1.62,1.62,0,0,0-.35,0Zm-9.71-12a6.5,6.5,0,0,1,.79-.08l.9,0a5.72,5.72,0,0,1,4,1.32A5.36,5.36,0,0,1,326.65,91a8.05,8.05,0,0,1-.38,2.7,4.15,4.15,0,0,1-1.09,1.73,3.94,3.94,0,0,1-1.72.93,8.7,8.7,0,0,1-2.26.27c-.32,0-.62,0-.92,0l-.77-.08Zm-1.26,12,.6.08.76.07.84,0h.82Q328,97.81,328,91a9.13,9.13,0,0,0-.4-2.81,5.22,5.22,0,0,0-1.22-2.1,5.48,5.48,0,0,0-2.09-1.33,8.68,8.68,0,0,0-3-.46h-.76l-.84,0-.79.06-.63.08Zm-5.1,0,.28,0h.68l.29,0V84.53a1.23,1.23,0,0,0-.29,0h-.65a1.3,1.3,0,0,0-.31,0Zm-10.86,0,.29,0h.66l.31,0V85.47c.3,0,.56-.06.78-.07s.45,0,.71,0a3.65,3.65,0,0,1,2.36.71,2.57,2.57,0,0,1,.87,2.12,2.54,2.54,0,0,1-.27,1.21,3,3,0,0,1-.72.88,4.17,4.17,0,0,1-1,.63,7.47,7.47,0,0,1-1.2.43l-.4.11v.07l4.58,6.06.35,0h.72a2.19,2.19,0,0,0,.36,0L306.51,92l.15,0a6.71,6.71,0,0,0,1.1-.56,4.23,4.23,0,0,0,1.61-1.84,3.21,3.21,0,0,0,.25-1.3,4,4,0,0,0-.41-1.89,3.14,3.14,0,0,0-1.08-1.2,4.37,4.37,0,0,0-1.52-.63,8.23,8.23,0,0,0-1.72-.18h-.72a5.41,5.41,0,0,0-.59,0l-.59.06-.7.06Zm-12.61-5a6.05,6.05,0,0,0,1.07,3.92,5,5,0,0,0,6.76,0,6.05,6.05,0,0,0,1.07-3.92v-8a1.26,1.26,0,0,0-.3,0h-.66a1.29,1.29,0,0,0-.29,0v7.89a5.26,5.26,0,0,1-.77,3.23,3,3,0,0,1-2.43,1,4.11,4.11,0,0,1-1.44-.22,2.2,2.2,0,0,1-1-.74,3.47,3.47,0,0,1-.58-1.3,8.22,8.22,0,0,1-.19-1.93V84.53a1.23,1.23,0,0,0-.29,0H290a1.26,1.26,0,0,0-.3,0ZM285,96.38a3.93,3.93,0,0,1-.95.21,13.2,13.2,0,0,1-1.38.06,5.35,5.35,0,0,1-1.88-.33,3.92,3.92,0,0,1-1.53-1,4.57,4.57,0,0,1-1-1.7,6.79,6.79,0,0,1-.38-2.42,7.69,7.69,0,0,1,.35-2.44,5.75,5.75,0,0,1,1-1.82,4.25,4.25,0,0,1,1.5-1.13,4.63,4.63,0,0,1,1.91-.39,8.09,8.09,0,0,1,1.71.15,7.91,7.91,0,0,1,1.07.3,4,4,0,0,0,.19-.54,2.79,2.79,0,0,0,.1-.57,11.13,11.13,0,0,0-1.23-.3,10.19,10.19,0,0,0-1.91-.15,6.06,6.06,0,0,0-2.39.46,5.36,5.36,0,0,0-1.91,1.35,6,6,0,0,0-1.26,2.16,8.52,8.52,0,0,0-.46,2.92,8.35,8.35,0,0,0,.46,2.87,5.87,5.87,0,0,0,1.29,2.07,5.17,5.17,0,0,0,1.94,1.26,7.18,7.18,0,0,0,2.44.41l1,0c.34,0,.67-.06,1-.11s.62-.11.91-.18a3.59,3.59,0,0,0,.73-.28V90.85l-.29,0h-.65l-.31,0ZM267.1,97.6h7.16c0-.08,0-.17,0-.29s0-.21,0-.3,0-.19,0-.3,0-.19,0-.26h-5.91V91.23H273c0-.07,0-.16,0-.28v-.6c0-.1,0-.19,0-.26h-4.62V85.67h5.75a2,2,0,0,0,0-.28c0-.12,0-.22,0-.3s0-.2,0-.3a1.84,1.84,0,0,0,0-.26h-7Zm-10.71-.89a5.46,5.46,0,0,0-.13.6c.41.13.86.25,1.33.35a8.75,8.75,0,0,0,1.78.15,6.88,6.88,0,0,0,2-.26,4.29,4.29,0,0,0,1.51-.76,3.41,3.41,0,0,0,.95-1.24,3.91,3.91,0,0,0,.34-1.68,3.44,3.44,0,0,0-.27-1.43,3.14,3.14,0,0,0-.75-1,4.49,4.49,0,0,0-1.13-.77c-.45-.22-.92-.43-1.43-.63s-.73-.3-1.06-.45a4.44,4.44,0,0,1-.84-.5,2,2,0,0,1-.56-.64,1.75,1.75,0,0,1-.2-.85,2,2,0,0,1,.66-1.56,3.06,3.06,0,0,1,2.16-.62,7.9,7.9,0,0,1,1.36.12,6.54,6.54,0,0,1,1.11.26,3.08,3.08,0,0,0,.16-.54,5.3,5.3,0,0,0,.1-.55l-.48-.13c-.2,0-.42-.09-.66-.13l-.76-.09q-.4,0-.81,0a4.68,4.68,0,0,0-3.1.9,3,3,0,0,0-1.06,2.39,3.21,3.21,0,0,0,.25,1.36,2.94,2.94,0,0,0,.69.94,4.2,4.2,0,0,0,1,.66c.38.18.79.35,1.21.51.59.23,1.09.45,1.48.64a3.84,3.84,0,0,1,.93.63,1.91,1.91,0,0,1,.47.72,2.86,2.86,0,0,1,.14.94,2.75,2.75,0,0,1-.2,1,2.27,2.27,0,0,1-.61.84,3.11,3.11,0,0,1-1,.56,4.68,4.68,0,0,1-1.5.21,9,9,0,0,1-1-.05c-.28,0-.53-.08-.76-.13s-.42-.1-.6-.16l-.53-.17a5.36,5.36,0,0,0-.2.57m-10.16.89.29,0h.65l.31,0V85.47c.3,0,.56-.06.78-.07s.46,0,.71,0a3.63,3.63,0,0,1,2.36.71,2.94,2.94,0,0,1,.61,3.33,3.39,3.39,0,0,1-.72.88,4.24,4.24,0,0,1-1,.63,7.47,7.47,0,0,1-1.2.43l-.4.11v.07l4.58,6.06a2.19,2.19,0,0,0,.36,0h.71a2.22,2.22,0,0,0,.37,0L250.44,92l.15,0a6.71,6.71,0,0,0,1.1-.56,4,4,0,0,0,.94-.8,3.94,3.94,0,0,0,.67-1,3.21,3.21,0,0,0,.25-1.3,3.83,3.83,0,0,0-.41-1.89,3.14,3.14,0,0,0-1.08-1.2,4.29,4.29,0,0,0-1.52-.63,8.14,8.14,0,0,0-1.71-.18h-.73a5.54,5.54,0,0,0-.59,0l-.58.06-.7.06Zm-10,0h7.16c0-.08,0-.17,0-.29s0-.21,0-.3,0-.19,0-.3,0-.19,0-.26h-5.91V91.23h4.62c0-.07,0-.16,0-.28s0-.21,0-.3,0-.2,0-.3,0-.19,0-.26h-4.62V85.67h5.75a2,2,0,0,0,0-.28c0-.12,0-.22,0-.3s0-.2,0-.3a1.84,1.84,0,0,0,0-.26h-7Zm-9.6-6.33h1.85a6,6,0,0,1,1.37.15,3.08,3.08,0,0,1,1.11.47,2.39,2.39,0,0,1,.74.84A2.8,2.8,0,0,1,232,94a2.39,2.39,0,0,1-.31,1.27,2.56,2.56,0,0,1-.85.82,3.69,3.69,0,0,1-1.21.43,7.12,7.12,0,0,1-1.39.13c-.32,0-.61,0-.9,0l-.68-.06Zm0-1.18V85.52l.68-.07c.29,0,.58,0,.9,0a3.25,3.25,0,0,1,2.26.66,2.14,2.14,0,0,1,.72,1.64,2.26,2.26,0,0,1-.68,1.71,3,3,0,0,1-2.15.66Zm-1.25,7.51.6.08.73.07.74,0h.65a9,9,0,0,0,2.08-.22,5.1,5.1,0,0,0,1.66-.7A3.26,3.26,0,0,0,233.32,94a3.83,3.83,0,0,0-.25-1.47,3.13,3.13,0,0,0-.65-1,3,3,0,0,0-.94-.63,4.1,4.1,0,0,0-1.09-.3,3.35,3.35,0,0,0,.81-.39,2.5,2.5,0,0,0,.68-.62,3.13,3.13,0,0,0,.47-.84,3,3,0,0,0,.17-1,2.94,2.94,0,0,0-1.15-2.57,5.57,5.57,0,0,0-3.29-.82h-.7l-.77.06-.72.07-.51.06Zm-5.11,0,.28,0h.68l.29,0V84.53a1.23,1.23,0,0,0-.29,0h-.65a1.3,1.3,0,0,0-.31,0Zm-4.45-1.08a6.75,6.75,0,0,1-1.55.17,5.22,5.22,0,0,1-1.87-.33,4,4,0,0,1-1.51-1,4.84,4.84,0,0,1-1-1.72,7.4,7.4,0,0,1-.36-2.43,8.33,8.33,0,0,1,.33-2.44,5.48,5.48,0,0,1,.93-1.82,4,4,0,0,1,1.45-1.13,4.59,4.59,0,0,1,1.93-.39c.36,0,.68,0,1,0l.72.09a5,5,0,0,1,.55.13l.49.15c.08-.21.15-.39.19-.53a4.63,4.63,0,0,0,.1-.55q-.34-.1-1.11-.27a9.33,9.33,0,0,0-1.91-.16,6.24,6.24,0,0,0-2.46.46,5.09,5.09,0,0,0-1.88,1.35,6.25,6.25,0,0,0-1.2,2.16,9.35,9.35,0,0,0-.42,2.92,8.5,8.5,0,0,0,.43,2.83,5.84,5.84,0,0,0,1.22,2.08,5.21,5.21,0,0,0,1.88,1.27,6.57,6.57,0,0,0,2.43.43,8.73,8.73,0,0,0,1.8-.17,5.52,5.52,0,0,0,1.47-.48,2.49,2.49,0,0,0-.16-.53,5,5,0,0,0-.26-.52,4.67,4.67,0,0,1-1.17.41m-21.7,1.08h7.17a2.19,2.19,0,0,0,0-.29c0-.11,0-.21,0-.3s0-.19,0-.3a1.84,1.84,0,0,0,0-.26h-5.91V91.23H200a1.91,1.91,0,0,0,0-.28c0-.11,0-.21,0-.3s0-.2,0-.3a1.84,1.84,0,0,0,0-.26h-4.62V85.67h5.74c0-.07,0-.17,0-.28s0-.22,0-.3,0-.2,0-.3,0-.19,0-.26h-7Zm-11.63-12a6.5,6.5,0,0,1,.79-.08l.9,0a5.74,5.74,0,0,1,4,1.32A5.36,5.36,0,0,1,189.63,91a8.05,8.05,0,0,1-.38,2.7,4.15,4.15,0,0,1-1.09,1.73,3.94,3.94,0,0,1-1.72.93,8.7,8.7,0,0,1-2.26.27c-.32,0-.62,0-.92,0l-.77-.08Zm-1.26,12,.6.08.76.07.84,0h.82q6.69,0,6.69-6.78a9.13,9.13,0,0,0-.4-2.81,5.24,5.24,0,0,0-1.23-2.1,5.33,5.33,0,0,0-2.09-1.33,8.58,8.58,0,0,0-3-.46h-.76l-.84,0-.79.06-.63.08Zm-13.94,0h6.84a2,2,0,0,0,0-.27c0-.1,0-.2,0-.3s0-.18,0-.3a2,2,0,0,0,0-.28h-5.59V84.53a1.23,1.23,0,0,0-.29,0h-.68a1.09,1.09,0,0,0-.28,0Zm-9.83-4.49,2.3-7.28,2.35,7.28Zm-2.77,4.49.3,0h.73l.34,0,1-3.33h5.38l1.09,3.33.31,0h.73l.31,0-4.37-13.07a1.42,1.42,0,0,0-.33,0h-.81a1.46,1.46,0,0,0-.34,0Zm-11.21,0,.27,0h.66l.28,0V86.74L151,97.6l.32,0H152l.32,0V84.53a1.26,1.26,0,0,0-.3,0h-.64a1.27,1.27,0,0,0-.28,0V95.47l-6.25-10.94a1.55,1.55,0,0,0-.33,0h-.7a1.42,1.42,0,0,0-.33,0Zm-10.41-1.34a3.53,3.53,0,0,1-1.28-1.15,5.39,5.39,0,0,1-.74-1.79,10.43,10.43,0,0,1,0-4.54,5.28,5.28,0,0,1,.74-1.77,3.53,3.53,0,0,1,1.28-1.15,4.24,4.24,0,0,1,3.64,0A3.5,3.5,0,0,1,138,87a5.1,5.1,0,0,1,.76,1.77,10.86,10.86,0,0,1,0,4.54,5.21,5.21,0,0,1-.76,1.79,3.5,3.5,0,0,1-1.27,1.15,4.24,4.24,0,0,1-3.64,0m4.21,1a4.56,4.56,0,0,0,1.68-1.4,6.51,6.51,0,0,0,1-2.14,11.33,11.33,0,0,0,0-5.43,6.55,6.55,0,0,0-1-2.13,4.56,4.56,0,0,0-1.68-1.4,5.94,5.94,0,0,0-4.77,0,4.48,4.48,0,0,0-1.68,1.4,6.55,6.55,0,0,0-1,2.13,11,11,0,0,0,0,5.43,6.51,6.51,0,0,0,1,2.14,4.48,4.48,0,0,0,1.68,1.4,5.94,5.94,0,0,0,4.77,0m-12.22.29.28,0H126l.29,0V84.53a1.23,1.23,0,0,0-.29,0h-.65a1.35,1.35,0,0,0-.31,0Zm-4.45-1.08a6.69,6.69,0,0,1-1.55.17,5.12,5.12,0,0,1-1.86-.33,3.94,3.94,0,0,1-1.51-1,4.69,4.69,0,0,1-1-1.72,7.39,7.39,0,0,1-.37-2.43,8.33,8.33,0,0,1,.33-2.44,5.48,5.48,0,0,1,.93-1.82A4,4,0,0,1,117,85.81a4.59,4.59,0,0,1,1.93-.39c.36,0,.68,0,1,0l.72.09c.21,0,.39.08.56.13l.48.15c.08-.21.15-.39.19-.53a3.22,3.22,0,0,0,.1-.55q-.35-.1-1.11-.27a9.26,9.26,0,0,0-1.91-.16,6.24,6.24,0,0,0-2.46.46,5,5,0,0,0-1.87,1.35,5.94,5.94,0,0,0-1.2,2.16A9.06,9.06,0,0,0,113,91.2,8.5,8.5,0,0,0,113.4,94a6,6,0,0,0,1.22,2.08,5.21,5.21,0,0,0,1.88,1.27,6.6,6.6,0,0,0,2.43.43,8.73,8.73,0,0,0,1.8-.17,5.52,5.52,0,0,0,1.47-.48,2.49,2.49,0,0,0-.16-.53c-.07-.17-.16-.34-.25-.52a4.91,4.91,0,0,1-1.18.41m-16.35-3.41,2.31-7.28,2.34,7.28ZM101.5,97.6l.3,0h.72l.34,0,1-3.33h5.38l1.09,3.33.31,0h.73l.3,0-4.36-13.07a1.48,1.48,0,0,0-.33,0h-.81a1.56,1.56,0,0,0-.35,0Zm-11.22,0,.27,0h.67l.28,0V86.74L97.75,97.6l.33,0h.72l.32,0V84.53a1.39,1.39,0,0,0-.3,0h-.64a1.2,1.2,0,0,0-.28,0V95.47L91.64,84.53a1.39,1.39,0,0,0-.32,0h-.7a1.58,1.58,0,0,0-.34,0ZM75.15,96.26a3.53,3.53,0,0,1-1.28-1.15,5.39,5.39,0,0,1-.74-1.79,10.43,10.43,0,0,1,0-4.54A5.28,5.28,0,0,1,73.87,87a3.53,3.53,0,0,1,1.28-1.15,4.24,4.24,0,0,1,3.64,0A3.58,3.58,0,0,1,80.06,87a5.29,5.29,0,0,1,.76,1.77,10.86,10.86,0,0,1,0,4.54,5.41,5.41,0,0,1-.76,1.79,3.58,3.58,0,0,1-1.27,1.15,4.24,4.24,0,0,1-3.64,0m4.2,1A4.59,4.59,0,0,0,81,95.91a6.51,6.51,0,0,0,1-2.14,11.33,11.33,0,0,0,0-5.43,6.55,6.55,0,0,0-1-2.13,4.59,4.59,0,0,0-1.69-1.4,5.91,5.91,0,0,0-4.76,0,4.48,4.48,0,0,0-1.68,1.4,6.35,6.35,0,0,0-1,2.13,11,11,0,0,0,0,5.43,6.32,6.32,0,0,0,1,2.14,4.48,4.48,0,0,0,1.68,1.4,5.91,5.91,0,0,0,4.76,0m-13.56.29.28,0h.69l.29,0V85.65h3.51a1.91,1.91,0,0,0,0-.28c0-.12,0-.21,0-.3a2.81,2.81,0,0,0,0-.29,1.69,1.69,0,0,0,0-.25H62.28a1.87,1.87,0,0,0,0,.27c0,.11,0,.2,0,.29s0,.2,0,.3a1.84,1.84,0,0,0,0,.26h3.51Zm-14.65-5a6.11,6.11,0,0,0,1.07,3.92,4.1,4.1,0,0,0,3.38,1.31A4.12,4.12,0,0,0,59,96.5a6.11,6.11,0,0,0,1.07-3.92v-8a1.42,1.42,0,0,0-.31,0h-.66a1.36,1.36,0,0,0-.29,0v7.89A5.19,5.19,0,0,1,58,95.65a2.93,2.93,0,0,1-2.43,1,4.09,4.09,0,0,1-1.43-.22,2.2,2.2,0,0,1-1-.74,3.32,3.32,0,0,1-.58-1.3,8.17,8.17,0,0,1-.2-1.93V84.53a1.23,1.23,0,0,0-.29,0h-.65a1.35,1.35,0,0,0-.31,0Zm-7,5,.28,0h.68l.3,0V85.65h3.5c0-.07,0-.16,0-.28s0-.21,0-.3a2.81,2.81,0,0,0,0-.29c0-.1,0-.18,0-.25H40.63q0,.1,0,.27v.59c0,.1,0,.19,0,.26h3.51ZM37,97.6l.28,0H38l.29,0V84.53a1.29,1.29,0,0,0-.29,0h-.65a1.3,1.3,0,0,0-.31,0Zm-7.15,0,.28,0h.68l.29,0V85.65h3.51a1.7,1.7,0,0,0,0-.28c0-.12,0-.21,0-.3a2.81,2.81,0,0,0,0-.29,1.56,1.56,0,0,0,0-.25H26.34q0,.1,0,.27v.59c0,.1,0,.19,0,.26h3.51Zm-12.74-.89a3.84,3.84,0,0,0-.13.6,13.46,13.46,0,0,0,1.33.35,8.75,8.75,0,0,0,1.78.15,6.92,6.92,0,0,0,2-.26,4.29,4.29,0,0,0,1.51-.76,3.41,3.41,0,0,0,.95-1.24,3.91,3.91,0,0,0,.34-1.68,3.44,3.44,0,0,0-.27-1.43,3.29,3.29,0,0,0-.75-1,4.38,4.38,0,0,0-1.14-.77c-.44-.22-.91-.43-1.42-.63s-.73-.3-1.06-.45a4.14,4.14,0,0,1-.84-.5,2,2,0,0,1-.56-.64,1.75,1.75,0,0,1-.2-.85A2,2,0,0,1,19.31,86a3,3,0,0,1,2.16-.62,7.9,7.9,0,0,1,1.36.12,6.54,6.54,0,0,1,1.11.26,4.26,4.26,0,0,0,.16-.54c0-.18.07-.37.1-.55l-.48-.13c-.2,0-.42-.09-.66-.13l-.76-.09-.81,0a4.68,4.68,0,0,0-3.1.9,3,3,0,0,0-1.06,2.39A3.21,3.21,0,0,0,17.58,89a2.94,2.94,0,0,0,.69.94,4.2,4.2,0,0,0,1,.66c.38.18.78.35,1.21.51.59.23,1.09.45,1.48.64a4.28,4.28,0,0,1,.93.63,1.91,1.91,0,0,1,.47.72,2.86,2.86,0,0,1,.14.94,2.75,2.75,0,0,1-.2,1,2.39,2.39,0,0,1-.61.84,3.21,3.21,0,0,1-1,.56,4.76,4.76,0,0,1-1.5.21,9,9,0,0,1-1-.05c-.28,0-.53-.08-.76-.13s-.42-.1-.61-.16l-.52-.17a3.79,3.79,0,0,0-.2.57m-12,.89.27,0H6l.29,0V86.74L12.58,97.6l.33,0h.72l.31,0V84.53a1.26,1.26,0,0,0-.3,0H13a1.14,1.14,0,0,0-.28,0V95.47L6.47,84.53a1.39,1.39,0,0,0-.32,0H5.44a1.48,1.48,0,0,0-.33,0ZM0,97.6l.28,0H1l.29,0V84.53a1.23,1.23,0,0,0-.29,0H.31a1.42,1.42,0,0,0-.31,0Z"/><path class="cls-2" d="M274,24.24H294V43.6H274Zm0-10.81V0H263.22V54.42h31.31a9.79,9.79,0,0,0,4-.82,10.09,10.09,0,0,0,3.25-2.22A10.94,10.94,0,0,0,304,48.13a9.75,9.75,0,0,0,.82-4V23.67a9.67,9.67,0,0,0-.82-4,10.82,10.82,0,0,0-2.19-3.25,10.06,10.06,0,0,0-7.24-3Zm-29.26-2.55h10.81V0H244.78Zm0,43.54h10.81v-41H244.78ZM235,24.24V13.43H203.72a9.74,9.74,0,0,0-4,.81,10.7,10.7,0,0,0-5.47,5.48,9.51,9.51,0,0,0-.82,4v20.5a9.59,9.59,0,0,0,.82,4,10.63,10.63,0,0,0,5.47,5.47,9.59,9.59,0,0,0,4,.82H235V43.6H204.28V24.24Z"/><path class="cls-1" d="M127.89,5.8h5.8V0h-5.8Zm0,48.62h5.8v-41h-5.8Zm51.87,0h5.8V22a8.38,8.38,0,0,0-.67-3.32,8.54,8.54,0,0,0-1.84-2.72,8.77,8.77,0,0,0-2.72-1.84,8.28,8.28,0,0,0-3.32-.67H143.79v41h5.8V22A2.65,2.65,0,0,1,150.4,20a2.7,2.7,0,0,1,2-.82H177A2.62,2.62,0,0,1,179,20a2.65,2.65,0,0,1,.81,1.94ZM318.06,31V22a2.78,2.78,0,0,1,2.76-2.76h24.59a2.6,2.6,0,0,1,2,.82,2.7,2.7,0,0,1,.78,1.94v9Zm2.76,23.4H354v-5.8H320.82a2.77,2.77,0,0,1-2.76-2.75v-9h36V22a8.21,8.21,0,0,0-.67-3.32,8.54,8.54,0,0,0-1.84-2.72,8.63,8.63,0,0,0-6.11-2.51H320.82a8.21,8.21,0,0,0-3.32.67,8.54,8.54,0,0,0-2.72,1.84,8.38,8.38,0,0,0-1.84,2.72,8.21,8.21,0,0,0-.67,3.32V45.87a8.28,8.28,0,0,0,.67,3.32,8.6,8.6,0,0,0,4.56,4.55,8.22,8.22,0,0,0,3.32.68m94.13,0H363.5v5.79H415Z"/><rect class="cls-3" x="92.49" y="25.28" width="16.96" height="16.96" transform="translate(5.7 81.29) rotate(-45)"/><path class="cls-2" d="M77.88,48.21l8.65-8.65,8.65,8.65-8.65,8.65Zm-3.34,0,12,12,12-12-12-12Z"/><rect class="cls-2" x="78.05" y="10.85" width="16.96" height="16.96" transform="translate(11.68 66.85) rotate(-45)"/></g></g></svg>